
<?xml version="1.0" standalone="no"?>
<!DOCTYPE svg PUBLIC "-//W3C//DTD SVG 20010904//EN"
 "http://www.w3.org/TR/2001/REC-SVG-20010904/DTD/svg10.dtd">
<svg version="1.0" xmlns="http://www.w3.org/2000/svg"
 width="544.000000pt" height="544.000000pt" viewBox="0 0 544.000000 544.000000"
 preserveAspectRatio="xMidYMid meet">
<metadata>
Created by potrace 1.11, written by Peter Selinger 2001-2013
</metadata>
<g transform="translate(0.000000,544.000000) scale(0.100000,-0.100000)"
fill="#000000" stroke="none">
<path d="M2420 5424 c-395 -46 -778 -177 -1113 -380 -88 -54 -232 -155 -292
-205 -363 -305 -605 -621 -782 -1019 -92 -208 -171 -473 -199 -670 -2 -19 -6
-44 -9 -55 -30 -147 -26 -583 6 -785 6 -36 13 -78 16 -95 10 -66 57 -246 89
-343 69 -208 171 -425 288 -610 55 -87 146 -215 166 -232 3 -3 18 -23 35 -45
49 -67 314 -326 408 -398 380 -295 788 -474 1252 -551 139 -24 235 -30 435
-31 209 0 297 6 457 34 342 60 666 181 956 357 86 52 241 160 269 187 7 7 41
35 76 62 94 75 297 286 388 405 278 361 462 777 534 1210 6 36 13 76 15 90 20
116 27 490 12 640 -52 511 -258 1019 -576 1420 -101 128 -313 339 -438 438
-302 239 -666 419 -1022 507 -75 18 -156 37 -181 41 -25 4 -47 8 -50 9 -3 1
-32 5 -65 9 -33 4 -73 9 -90 12 -73 12 -477 10 -585 -2z"/>
</g>
</svg>