<?xml version="1.0" standalone="no"?>
<!DOCTYPE svg PUBLIC "-//W3C//DTD SVG 20010904//EN"
 "http://www.w3.org/TR/2001/REC-SVG-20010904/DTD/svg10.dtd">
<svg version="1.0" xmlns="http://www.w3.org/2000/svg"
 width="1004.000000pt" height="1004.000000pt" viewBox="0 0 1004.000000 1004.000000"
 preserveAspectRatio="xMidYMid meet">
<metadata>
Created by potrace 1.11, written by Peter Selinger 2001-2013
</metadata>
<g transform="translate(0.000000,1004.000000) scale(0.100000,-0.100000)"
fill="#000000" stroke="none">
<path d="M4477 9164 c-360 -65 -799 -415 -975 -776 -100 -205 -147 -405 -140
-598 3 -103 7 -122 34 -180 20 -42 49 -81 80 -110 l49 -45 -104 -140 c-287
-385 -416 -518 -646 -667 -269 -175 -367 -206 -1120 -357 -788 -157 -1079
-246 -1214 -367 -199 -179 -330 -582 -412 -1264 -31 -258 -32 -593 -2 -730 83
-383 318 -565 876 -680 53 -11 191 -33 306 -49 258 -37 339 -55 418 -92 59
-28 68 -37 199 -212 293 -388 442 -566 634 -757 264 -263 505 -424 745 -496
82 -24 109 -27 297 -32 l207 -4 29 -82 c46 -125 78 -232 102 -338 12 -54 26
-98 31 -98 8 0 821 368 828 375 2 2 -17 39 -42 82 -44 77 -74 150 -64 159 3 3
76 21 163 39 164 36 425 106 551 149 l72 25 21 -35 c12 -19 23 -34 25 -34 1 0
48 37 103 82 80 66 122 92 204 127 413 176 827 431 1162 715 50 41 91 74 93
72 2 -2 -13 -90 -32 -197 -63 -341 -270 -1628 -263 -1634 2 -2 53 25 115 58
l111 62 12 80 c34 242 130 782 271 1530 l82 429 66 76 c289 328 494 745 580
1177 52 259 65 394 66 663 0 201 -4 281 -24 442 l-25 197 27 48 c15 26 107
193 204 371 98 177 181 322 185 322 4 0 8 -8 8 -17 0 -39 92 -287 145 -394 80
-159 145 -265 248 -402 89 -119 133 -159 217 -202 130 -65 346 -111 490 -103
72 4 98 11 151 38 89 44 199 131 247 193 122 157 182 408 169 702 -13 271 -62
461 -183 705 -153 307 -336 539 -559 708 -90 68 -269 156 -367 181 -313 80
-686 31 -998 -130 -155 -80 -439 -313 -609 -499 l-87 -96 -128 133 c-340 354
-678 546 -1201 682 -39 10 -42 14 -74 93 -59 145 -221 455 -303 580 -168 253
-355 404 -604 487 -152 51 -298 62 -447 35z m308 -169 c292 -35 580 -297 794
-723 41 -82 111 -243 111 -255 0 -1 -62 6 -137 16 -103 14 -209 19 -419 20
l-280 2 -54 135 c-29 74 -70 168 -91 209 l-38 74 40 100 c22 55 37 102 34 105
-7 8 -4 13 -100 -163 -48 -88 -141 -243 -205 -345 l-118 -185 -123 -28 c-68
-15 -162 -39 -208 -53 -83 -25 -85 -26 -196 -137 -61 -62 -130 -134 -153 -162
l-42 -50 -44 46 c-52 54 -69 104 -68 204 0 235 190 596 446 850 202 201 423
317 656 345 64 7 95 7 195 -5z m-86 -804 c23 -73 41 -137 41 -142 0 -5 -19 -9
-42 -10 -24 0 -83 -6 -133 -13 -49 -7 -91 -13 -91 -12 -1 0 29 69 67 151 38
83 74 164 79 180 l11 30 14 -25 c7 -14 32 -86 54 -159z m949 -365 c275 -48
493 -117 727 -230 255 -123 434 -261 640 -496 l94 -107 -65 -99 c-86 -129
-233 -429 -279 -569 -36 -109 -37 -110 -19 -143 19 -35 71 -70 83 -55 4 4 18
42 31 83 66 204 290 594 475 825 171 215 458 471 635 568 147 81 337 119 579
118 171 -1 263 -16 381 -62 133 -51 296 -164 422 -292 291 -295 519 -858 518
-1278 0 -179 -43 -312 -131 -413 -54 -61 -108 -92 -209 -117 -108 -28 -283
-23 -373 10 -118 42 -242 153 -348 311 -115 170 -247 481 -331 777 -24 85 -48
153 -55 153 -27 0 -167 -196 -312 -437 -34 -57 -140 -214 -237 -349 l-176
-246 -100 -236 c-142 -335 -250 -603 -246 -608 2 -2 53 68 113 154 154 222
299 422 307 422 36 1 48 -699 14 -925 -40 -272 -81 -405 -197 -637 -116 -233
-207 -392 -316 -558 -79 -120 -120 -169 -232 -281 -249 -247 -581 -507 -893
-695 -121 -73 -120 -73 -70 -28 l42 39 -56 90 c-192 308 -493 541 -930 718
-185 76 -488 166 -684 204 -30 6 -45 14 -44 24 1 8 13 70 28 139 29 141 56
339 56 406 l0 45 -48 -58 c-78 -93 -240 -243 -342 -315 -52 -37 -158 -99 -235
-137 -122 -61 -155 -72 -255 -91 -63 -12 -209 -45 -325 -74 -178 -46 -230 -55
-340 -60 -225 -12 -596 21 -840 75 -85 18 -127 29 -255 66 -77 22 -325 149
-450 231 -113 74 -191 148 -271 258 -50 68 -142 244 -154 295 l-6 25 58 -7
c234 -27 547 93 756 291 118 111 189 215 231 341 113 338 -70 611 -509 762
-163 56 -259 71 -435 71 -178 -1 -262 -18 -389 -80 -282 -138 -372 -497 -212
-840 78 -166 222 -340 356 -431 59 -40 61 -43 73 -103 51 -244 197 -515 348
-646 130 -111 303 -228 381 -256 26 -10 53 -38 111 -118 42 -58 103 -136 136
-175 50 -58 40 -51 -61 47 -164 161 -185 169 -583 237 -342 58 -451 89 -611
172 -201 105 -333 274 -391 504 -21 82 -23 111 -22 335 0 266 12 380 64 640
50 251 119 467 213 663 l51 109 65 30 c115 52 302 124 434 167 237 77 441 119
857 176 233 32 357 58 490 101 330 108 661 345 946 680 l103 121 83 28 c103
35 228 40 271 13 14 -10 35 -18 46 -18 23 0 61 44 61 71 0 33 -23 69 -47 75
-30 8 -250 -2 -282 -12 -38 -12 142 219 274 351 147 147 256 211 410 240 175
33 567 54 950 50 273 -2 314 -5 453 -29z m-4429 -2230 c223 -60 264 -189 78
-250 -210 -70 -567 18 -567 138 0 54 79 105 192 125 68 13 227 5 297 -13z
m2883 -2232 c839 -162 1513 -498 1749 -871 l19 -30 -118 -93 c-64 -51 -154
-124 -198 -162 -45 -37 -83 -68 -86 -68 -2 0 -27 22 -56 49 -223 210 -485 243
-722 93 -124 -78 -251 -247 -285 -377 -19 -75 -19 -204 0 -278 8 -32 15 -62
15 -66 0 -4 -30 -22 -67 -39 -38 -17 -132 -60 -210 -96 l-143 -65 -26 87
c-118 388 -327 781 -557 1048 -196 227 -369 352 -676 485 l-34 15 134 61 c347
158 654 257 965 312 142 25 142 25 296 -5z m-1867 -645 c296 -235 615 -368
957 -401 l128 -12 56 -78 c116 -161 284 -468 247 -453 -40 17 -73 25 -180 44
-335 61 -579 197 -858 475 -169 168 -623 674 -504 561 46 -44 116 -105 154
-136z m2909 -578 c75 -37 168 -117 146 -125 -116 -43 -593 -146 -677 -146 -17
0 -7 24 44 102 120 184 318 253 487 169z"/>
<path d="M5710 6997 c-32 -16 -52 -59 -44 -91 3 -14 22 -38 42 -53 70 -53 114
-123 161 -255 43 -123 62 -236 61 -358 -1 -137 -2 -130 15 -130 37 0 75 140
75 278 0 173 -58 351 -171 522 -45 67 -80 100 -107 100 -4 0 -18 -6 -32 -13z"/>
<path d="M3450 6839 c-260 -52 -516 -413 -395 -558 36 -42 75 -55 150 -49 114
10 261 95 346 201 40 50 40 51 18 62 -25 14 -48 51 -49 78 -1 57 61 105 119
92 29 -6 31 -5 31 24 0 112 -93 176 -220 150z"/>
<path d="M4682 6494 c-99 -49 -191 -176 -251 -347 -35 -100 -36 -106 -36 -252
0 -132 3 -157 23 -206 24 -60 79 -124 119 -140 41 -15 114 -10 158 11 85 41
175 150 232 280 42 95 42 106 0 114 -72 13 -116 101 -83 164 23 45 53 62 109
62 l49 0 -7 53 c-29 234 -156 339 -313 261z"/>
<path d="M4295 4334 c-33 -9 -74 -55 -81 -90 -9 -46 12 -98 52 -134 l35 -31
104 7 c100 7 105 6 148 -19 31 -18 67 -56 111 -117 37 -49 70 -90 75 -90 25 0
34 33 28 103 -16 219 -161 362 -377 372 -41 2 -84 2 -95 -1z"/>
</g>
</svg>
